/* XPM */
static char * default_xpm[] = {
"96 96 64 1",
" 	c None",
".	c #000100",
"+	c #0C0E0A",
"@	c #1C1C19",
"#	c #231C0C",
"$	c #312714",
"%	c #2C2B27",
"&	c #3B2D0F",
"*	c #403728",
"=	c #393A38",
"-	c #534117",
";	c #504430",
">	c #474946",
",	c #5B482B",
"'	c #634D1C",
")	c #704B0B",
"!	c #5F523D",
"~	c #555754",
"{	c #7B562C",
"]	c #6F5F40",
"^	c #815E18",
"/	c #616260",
"(	c #7B6421",
"_	c #816435",
":	c #8A6620",
"<	c #8E6A1C",
"[	c #8A6B23",
"}	c #856E4F",
"|	c #727371",
"1	c #946F2F",
"2	c #9C7B29",
"3	c #7F817E",
"4	c #9C824C",
"5	c #A18240",
"6	c #98835F",
"7	c #A9862F",
"8	c #AA8B3C",
"9	c #8E908D",
"0	c #B09241",
"a	c #B29451",
"b	c #B6994D",
"c	c #BB9D52",
"d	c #9FA09D",
"e	c #B8A173",
"f	c #C0A35E",
"g	c #BFA56D",
"h	c #ABADAA",
"i	c #CEB069",
"j	c #B8B29F",
"k	c #C3B28A",
"l	c #B2B4B1",
"m	c #CFB681",
"n	c #BCBEBB",
"o	c #DCBC7C",
"p	c #CCBFA3",
"q	c #C8CAC6",
"r	c #ECCE8C",
"s	c #CFD2CE",
"t	c #D7D9D6",
"u	c #FDDE9B",
"v	c #DFE1DE",
"w	c #E9EBE7",
"x	c #F1F3F0",
"y	c #FDFFFC",
"                                                                                                ",
"                                                                                                ",
"                                                                                                ",
"                                                                                                ",
"                                                                                                ",
"                                                                                                ",
"                                                                                                ",
"                                                                                                ",
"                                                                                                ",
"                                                                                                ",
"                                                                                                ",
"                                                                                                ",
"                                                                                                ",
"                                                q9~==n                                          ",
"                                            q9~@.....%                                          ",
"                                        q9~@....*}eu#.q                                         ",
"                                    q9~@....*}eurroi].3          t>+/                           ",
"                                q9~@...+;}euuoofffffa.%         t%...~                          ",
"                            q9~@...+;6murroffffffffff#.q       t%.!m+.~                         ",
"                        q9~@...+;6muromfffffffgfgffff].3      t%.!uum+.~                        ",
"                    q9~@...@;6muroiffff]@#;}afffffgffa.%     t%.!uuuum..~                       ",
"                 9~@...@!6muroifgfffffa......#;_gfffff#.q   t%.!uuuuuum+.~                      ",
"                3..@!6rurrofffffffgfff}./vd/@+...#;_gf].|  t%.!uuuuuuuum..~                     ",
"                =.euroffffff4;$#$$$%$$#.dyyyyvd/@....#$.@ t%.!uuuuuuuuuum+.~                    ",
"                |.}offffffff+...........vyyyyyyyyvd/@....%@.!uuuuuuuuuuuum..~                   ",
"                h.;rffffffff..hhhhhhhd.@yyyyyyyyyyyyyvd/@....%}6upuuuuuuuum+.~                  ",
"                 +.uigfgffgf..wxvxvxvd./yyyyyyyyyyyyyyyyyvd/@....*!epuuuuuum..~                 ",
"                 >.eofffffff..vvxvxvx/.dyyyyyyyyyyyyyyyyyyyyyvd/%....%}kuuuum+.~                ",
"                 3.]rfffffff..xvxvxvx%.vyyyyyyyyyyyyyyyyyyyyyyyyyvd|%...uuuuum..~               ",
"                 q.%rfgfffff..vxvxxxv.@yyxqswyyyyyyyyyyyyyyyyyyyyyyyyx%.euuuuum+.~              ",
"                  @.riffffff..xxqnnn9./yyxllhlntwyyyyyyyyyyyyyyyyyyyyy+.uuuuuuum..~             ",
"                  ~.eogfgfff..vxllhl>.dyyyvtnlllhlnswyyyyyyyyyyyyyyyys.=uuuuuuuum+.~            ",
"                  d.!rffffff..xvvvvv%.vyyyyyyyvtnlllhlntwyyyyyyyyyyyy9.}uuuuuuuuum..~           ",
"                  t.@uffgfff..xxtssq.@yyxqqtwyyyyyxtnlllhlnswyyyyyyyy~.kuuuuuuuuuum+.~          ",
"                   %.mifffff..xxhll|./yyxhllllqtwyyyyyvtnlllhlntwyyyy+.uupuuuuuuuuum..9         ",
"         thhhhhhhhh~.6offfb0..xxvts/.dyyyxvsnllllhqtwyyyyyxtnlllhnyys.*uuupuuuuuuuuum+.9        ",
"         %...........!r88287..xxtss%.tyyyyyyyxvsnlllllqtwyyyyyvtqsyy9.}uuuuuuupuuuuuum..n       ",
"        h.#,---------{4877<:..xxlld.@yxwlnsvxyyyyxvsnllllhqtwyyyyyyy>.kuuuuuuuuuuuuuuu;.h       ",
"        q..go077778882{{^)))..xxtt9.~xxxllllllqtxyyyyxvsnlllllqtxyyy+.uuuuuuuuuuuuuuu!..t       ",
"         9.+mr788877788_{)))..xxxv/.9xxxxvtqllllllqtxyyyyxvsnlllnyys.*uuuuuuuuupuuuu!.+n        ",
"          9.+mr777777782_{')..xxll%.qvxvxxxxxxtqnlllllqtxyyyyxvqvyy9.}uuuuuuuuuuuuu~..n         ",
"           9.+mr728872782{{)..xxsl.@vxthhnqtxxxxxxtqllllllqtxyyyyyy~.epuuuxuuuuuuu!..n          ",
"            9.+er778787882_{..xxxd.~vvvnlllhhlqtvxxxxxtqnlllllqvyyy+.fouuuuuuuuuu/..q           ",
"             9..6r778787778{,.xyl>.9ttvvttqnlllllnqtxxxxxxtqllllyyq.#afguuuuuuuu!.+n            ",
"              9..6r777788787{{xxq%.nttttttvvvtqnllllhlqtxxxxxxttxx9.&)afguuuuxu!..n             ",
"               9+.6r828777788{}xv.@stshllnqtvvtvvtqnllhhhlqtxxxxxx>.-^)afeuuuu!..n              ",
"                9..6r778277888{63.>sstnllllhlnqsttvvvtqnlllhhlsxxx+.)))^afguu!.........+/       ",
"                 9.+6r877887778{,.3qqqqssnnllllllnqtvvvvvtqnllhxvn.#)))))afo!............n      ",
"                  9..6r077778788{{dqqnnqsqssqqnlllhllnqttvvvvttvv3.&))))^5fffffffioru4;@.h      ",
"                   9..ir772878778{}nnllllnnqqqqssnnllllllnqtvtvvv>.-^1afffffffoour6!@...=       ",
"                    =.)ir877778888{}nnlllllllnnqqssqqqnllllllnvvt$,affffffgouue}%...+>9q        ",
"                    =.^)fu087877778{}lnnnnlllllllnnqqqqsqqnlllpkgfffffioourg;....=|n            ",
"                    =.:^)fu077778788{}llnnnnnnlllllllnnqqqpmgffffffoorumf11{.@/dt               ",
"                    =.<:))fu028778787{}lllnnlnnnnnlllljegfgffffioruoga^1^:^'.|                  ",
"                    =.8<1^)fu072777788{}lllnlnnlnnjkgfffffffoouuoa1:::::_::'.|                  ",
"                    =.782:^)au087878778{}dlhlhjpefffffffioruog1^^1:1^1:::11^.|                  ",
"                    =.088<1^)ai878788788{}npmofooooiooouroa1:1:1_^::1_:2278(.|                  ",
"                    =.70802<^)^)))))))))){aooooooomooog1{1:::::[:1[[2772787(.|                  ",
"                    =.008082<<<<<<<<1<<1i1<1^^^^1^11^11::::1_[1[25787888782(.|                  ",
"                    =.800008222222222222r1:7211::::::::11[[[222877772777777(.|                  ",
"                    =.8080b0022222222280r1:8821:1_1:1[[[1182887878777778788(.|                  ",
"                    =.08b08b888227277b0cr1<77772[:[[1[587777772787888827877(.|                  ",
"                    =.b8b08cb0882728bba0r1<788878[5777787887787777777787728(.|                  ",
"                    =.800808b8c888bc8c0cr1<87778777887778772878727777877877(.|                  ",
"                    =.5c8cc8c00008bbacaco1<77777877728777787772888287727872(.|                  ",
"                    /.#8a08c8bcbcc8c000cr1<82878727877872877877777777887778(.|                  ",
"                     ~.#500c8c8abaccccccr1<77827787877877787887778787787878^.|                  ",
"                      ~.#5c8cac0c08ca8car1<28777877287787872778287277772787(.|                  ",
"                       ~.#5c00cacccccc0ar1<77787787782782777777778788778728(.|                  ",
"                        /.#5ccc00aaacaccr1[78872877777777788878787277887877(.|                  ",
"                         ~.#5ccc0ccc0ccar1[77777788788778772778727777277878(.|                  ",
"                          ~.#5acc0ccfaccr[[77887272872887777287778887777727(.|                  ",
"                           ~.#accca0cccar1<27788787787728870728777787827787(.|                  ",
"                            ~.#5cccacaccr1[77277777777787787787877728778827(.|                  ",
"                             ~.#5ccccffar1[87778788287777728777828778877788^.|                  ",
"                              /.#accfcccr[[77887727878728787287777777777[-#..3                  ",
"                               ~.#acaffar1<8727877777887777078288787('$+..../t                  ",
"                                ~.#accccr([7778778772772877727022'&+....>3n                     ",
"                                 ~.#afffr1<877287887770788272(&+....=|h                         ",
"                                  ~.#aafr[[78787727887722(-#....%/dt                            ",
"                                   ~.#afr1<2777877728(-#....@~dt                                ",
"                                    ~.#ar[[787777(-&....+~9q                                    ",
"                                     ~.#m:<78('$+...+>3n                                        ",
"                                      ~.#('&++...=|n                                            ",
"                                       ~.....%/h                                                ",
"                                        |=/dt                                                   ",
"                                                                                                ",
"                                                                                                ",
"                                                                                                ",
"                                                                                                ",
"                                                                                                ",
"                                                                                                ",
"                                                                                                ",
"                                                                                                ",
"                                                                                                ",
"                                                                                                "};
